<?xml version="1.0" encoding="utf-8"?>
<!-- Generator: Adobe Illustrator 24.3.0, SVG Export Plug-In . SVG Version: 6.00 Build 0)  -->
<svg version="1.1" id="Layer_1" xmlns="http://www.w3.org/2000/svg" xmlns:xlink="http://www.w3.org/1999/xlink" x="0px" y="0px"
	 viewBox="0 0 500 500" style="enable-background:new 0 0 500 500;" xml:space="preserve">
<style type="text/css">
	.st0{fill:#FFFFFF;}
	.st1{font-family:'Philosopher-Bold';}
	.st2{font-size:257.0306px;}
</style>
<g>
	<g>
		<path d="M252,476.5c-60.5,0-117.38-23.56-160.16-66.34S25.5,310.5,25.5,250c0-60.5,23.56-117.38,66.34-160.16
			C134.62,47.06,191.5,23.5,252,23.5c60.5,0,117.38,23.56,160.16,66.34S478.5,189.5,478.5,250c0,60.5-23.56,117.38-66.34,160.16
			S312.5,476.5,252,476.5z"/>
		<path class="st0" d="M252,24.5c30.44,0,59.97,5.96,87.77,17.72c26.85,11.36,50.97,27.62,71.68,48.33
			c20.71,20.71,36.97,44.83,48.33,71.68c11.76,27.8,17.72,57.33,17.72,87.77s-5.96,59.97-17.72,87.77
			c-11.36,26.85-27.62,50.97-48.33,71.68c-20.71,20.71-44.83,36.97-71.68,48.33c-27.8,11.76-57.33,17.72-87.77,17.72
			s-59.97-5.96-87.77-17.72c-26.85-11.36-50.97-27.62-71.68-48.33c-20.71-20.71-36.97-44.83-48.33-71.68
			C32.46,309.97,26.5,280.44,26.5,250s5.96-59.97,17.72-87.77c11.36-26.85,27.62-50.97,48.33-71.68
			c20.71-20.71,44.83-36.97,71.68-48.33C192.03,30.46,221.56,24.5,252,24.5 M252,22.5C126.36,22.5,24.5,124.36,24.5,250
			S126.36,477.5,252,477.5S479.5,375.64,479.5,250S377.64,22.5,252,22.5L252,22.5z"/>
	</g>
	<text transform="matrix(1 0 0 1 104.208 340.2578)" class="st0 st1 st2">TT</text>
</g>
</svg>
